<svg xmlns="http://www.w3.org/2000/svg" viewBox="0 0 256 256" fill="none">
  <rect width="256" height="256" rx="48" fill="#0EA5E9"/>
  <path d="M64 48C64 39.1634 71.1634 32 80 32H176C184.837 32 192 39.1634 192 48V80H208C216.837 80 224 87.1634 224 96V208C224 216.837 216.837 224 208 224H80C71.1634 224 64 216.837 64 208V48Z" fill="white"/>
  <path d="M192 80H208C216.837 80 224 87.1634 224 96V208C224 216.837 216.837 224 208 224H80C71.1634 224 64 216.837 64 208V192H192V80Z" fill="#0EA5E9"/>
  <circle cx="192" cy="144" r="32" fill="#0EA5E9"/>
  <rect x="176" y="136" width="32" height="16" rx="8" fill="white"/>
</svg>
